<?xml version="1.0" encoding="UTF-8" standalone="no"?>
<!-- Created with Inkscape (http://www.inkscape.org/) -->

<svg
   xmlns:dc="http://purl.org/dc/elements/1.1/"
   xmlns:cc="http://creativecommons.org/ns#"
   xmlns:rdf="http://www.w3.org/1999/02/22-rdf-syntax-ns#"
   xmlns:svg="http://www.w3.org/2000/svg"
   xmlns="http://www.w3.org/2000/svg"
   xmlns:sodipodi="http://sodipodi.sourceforge.net/DTD/sodipodi-0.dtd"
   xmlns:inkscape="http://www.inkscape.org/namespaces/inkscape"
   width="208.1678mm"
   height="38.476307mm"
   viewBox="0 0 208.1678 38.476307"
   version="1.1"
   id="svg8"
   inkscape:version="0.92.0 r15299"
   sodipodi:docname="cloudtesting-logo.svg">
  <defs
     id="defs2" />
  <sodipodi:namedview
     id="base"
     pagecolor="#ffffff"
     bordercolor="#666666"
     borderopacity="1.0"
     inkscape:pageopacity="0.0"
     inkscape:pageshadow="2"
     inkscape:zoom="2.8"
     inkscape:cx="339.48072"
     inkscape:cy="77.91256"
     inkscape:document-units="mm"
     inkscape:current-layer="layer1"
     showgrid="false"
     inkscape:window-width="3200"
     inkscape:window-height="1675"
     inkscape:window-x="-13"
     inkscape:window-y="-13"
     inkscape:window-maximized="1"
     fit-margin-top="0"
     fit-margin-left="0"
     fit-margin-right="0"
     fit-margin-bottom="0" />
  <metadata
     id="metadata5">
    <rdf:RDF>
      <cc:Work
         rdf:about="">
        <dc:format>image/svg+xml</dc:format>
        <dc:type
           rdf:resource="http://purl.org/dc/dcmitype/StillImage" />
        <dc:title></dc:title>
      </cc:Work>
    </rdf:RDF>
  </metadata>
  <g
     inkscape:label="Layer 1"
     inkscape:groupmode="layer"
     id="layer1"
     transform="translate(-1.1994957,-85.401428)">
    <g
       id="g4854">
      <path
         transform="scale(0.26458333)"
         id="path3968"
         d="m 158.23047,323.2793 c -14.36211,-0.14443 -30.47053,6.64534 -47.1582,25.13281 -19.004285,0.33514 -37.381435,-3.09901 -61.429692,27.5 -36.317443,-4.92859 -74.305429,65.92897 -9.464844,91.60742 l 173.749996,0.17969 c 50.74346,-20.66498 38.47113,-76.8677 1.42969,-90 1.10484,-14.83897 -23.11143,-54.07786 -57.12695,-54.41992 z m -0.21875,10.74609 c 24.36752,-0.45957 44.99681,22.94675 50.20312,52.95899 32.99611,10.86924 40.86482,54.10596 3.21289,69.64257 H 41.964844 C -3.6323184,439.42296 15.562279,381.46199 55,387.3418 c 17.750812,-29.92752 39.04864,-29.25777 60.53516,-26.96485 13.9605,-18.326 28.80697,-26.09375 42.47656,-26.35156 z"
         style="fill:#3ab4d4;stroke:#3ab4d4;stroke-width:0.99999994px;stroke-linecap:butt;stroke-linejoin:miter;stroke-opacity:1"
         inkscape:connector-curvature="0" />
      <path
         inkscape:connector-curvature="0"
         id="path3972"
         d="m 38.766037,94.570234 -4.606438,2.125966 0.259932,3.80338 -3.827156,0.44907 -1.086755,4.9134 3.165697,2.07894 -2.102715,3.42563 3.260268,3.85041 3.354316,-1.22835 1.653645,3.89797 4.795573,-0.0476 1.275892,-3.82665 3.921726,1.15756 2.881992,-3.99253 -1.937347,-3.04735 3.18947,-2.52802 -1.394233,-4.81882 -3.141927,-0.16537 0.189137,-3.520193 -4.346506,-2.315104 -2.622579,2.575036 z m -0.330729,1.842264 2.362644,2.268077 c 0.516049,0.419217 1.10023,0.339175 1.6769,-0.04702 l 2.008148,-1.961121 2.528012,1.205095 -0.236681,3.047351 c 0.199253,0.79037 0.814176,1.06126 1.512054,1.22835 l 2.17351,0.0708 0.732256,2.88199 -2.14974,1.46503 c -0.894778,0.58423 -0.916181,1.36236 -0.685228,2.19676 l 1.512051,2.33888 -1.748213,2.3151 -2.92902,-0.89762 c -0.815938,-0.0642 -1.381249,0.20613 -1.630391,0.89762 l -0.968418,2.81121 h -2.811198 l -1.441256,-3.14194 c -0.496094,-0.70754 -0.992185,-0.66349 -1.488282,-0.56689 l -2.645833,0.96842 -1.913059,-2.24431 1.559076,-2.6696 c 0.141758,-0.57698 0.253661,-1.15652 -0.283702,-1.79524 l -2.409672,-1.55908 0.685229,-2.95279 2.929538,-0.28371 c 0.607988,-0.25977 1.177247,-0.56271 1.228346,-1.44125 L 35.64788,97.664622 Z"
         style="fill:#3ab4d4;stroke:#3ab4d4;stroke-width:0.26458332px;stroke-linecap:butt;stroke-linejoin:miter;stroke-opacity:1" />
      <path
         inkscape:connector-curvature="0"
         id="path4823"
         d="m 41.045705,100.42895 a 5.7287011,5.7287011 0 0 0 -5.728333,5.72833 5.7287011,5.7287011 0 0 0 5.728333,5.72885 5.7287011,5.7287011 0 0 0 5.728848,-5.72885 5.7287011,5.7287011 0 0 0 -5.728848,-5.72833 z m -0.04703,1.41749 a 4.3349142,4.3349142 0 0 1 4.334618,4.33461 4.3349142,4.3349142 0 0 1 -4.334618,4.33514 4.3349142,4.3349142 0 0 1 -4.335135,-4.33514 4.3349142,4.3349142 0 0 1 4.335135,-4.33461 z"
         style="opacity:1;fill:#3ab4d4;fill-opacity:1;stroke:#3ab4d4;stroke-width:0.26499999;stroke-miterlimit:4;stroke-dasharray:none;stroke-opacity:0" />
    </g>
    <g
       id="g4873">
      <g
         id="g4863">
        <path
           style="fill:#3ab4d4;stroke:#3ab4d4;stroke-width:0.26458332px;stroke-linecap:butt;stroke-linejoin:miter;stroke-opacity:1"
           d="m 99.557897,92.104497 -15.234362,0.06682 c -2.678539,0.715382 -4.292642,2.324891 -4.744034,4.911077 V 109.4102 c 0.592602,2.5897 2.139831,4.38936 5.311981,4.84426 l 14.666415,-0.0668 0.03341,-4.04245 -14.599597,-0.0668 c -0.646147,-0.0384 -1.211128,-0.27964 -1.503392,-1.20271 l 0.03341,-11.72645 c 0.342684,-0.763904 0.773166,-0.913222 1.202714,-1.069078 l 14.866866,-0.03341 z"
           id="path4837"
           inkscape:connector-curvature="0"
           sodipodi:nodetypes="ccccccccccccc" />
        <path
           style="fill:#3ab4d4;stroke:#3ab4d4;stroke-width:0.26458332px;stroke-linecap:butt;stroke-linejoin:miter;stroke-opacity:1"
           d="m 106.74077,92.438584 c -1.36156,-0.78732 -2.57806,-0.825103 -3.40769,1.135896 v 20.71339 l 4.04245,-0.0668 -0.0668,-13.09621 7.08265,12.49485 c 1.15812,0.87892 2.27184,0.91402 3.34087,0.10023 l 7.14946,-12.49485 -0.0334,12.99598 h 4.14267 l -0.0334,-20.746797 c -0.78667,-1.345505 -1.756,-2.273478 -3.77518,-0.801809 l -9.08716,15.702086 z"
           id="path4839"
           inkscape:connector-curvature="0"
           sodipodi:nodetypes="cccccccccccccc" />
        <path
           style="fill:#3ab4d4;stroke:#3ab4d4;stroke-width:0.26458332px;stroke-linecap:butt;stroke-linejoin:miter;stroke-opacity:1"
           d="m 138.83538,90.36514 c -3.11902,0.111172 -5.14038,1.512099 -5.74051,4.582961 l 0.0236,19.276789 4.03962,0.0472 V 95.585935 c 0.25179,-0.899006 0.87715,-1.190942 1.63003,-1.27567 l 9.07143,0.02363 v -4.015996 z"
           id="path4841"
           inkscape:connector-curvature="0"
           sodipodi:nodetypes="ccccccccc" />
        <path
           style="fill:#3ab4d4;stroke:#3ab4d4;stroke-width:0.26458332px;stroke-linecap:butt;stroke-linejoin:miter;stroke-opacity:1"
           d="m 138.74088,97.523063 v 4.086867 l 9.04781,-0.0236 -0.0236,-4.110486 z"
           id="path4843"
           inkscape:connector-curvature="0" />
        <path
           style="fill:#3ab4d4;stroke:#3ab4d4;stroke-width:0.26458332px;stroke-linecap:butt;stroke-linejoin:miter;stroke-opacity:1"
           d="m 155.30097,97.499441 c -2.93203,0.468458 -5.2615,1.665584 -5.50428,5.386159 l 0.0236,6.23661 c 0.46312,2.78245 2.09029,4.63366 5.38616,5.14992 l 7.48865,0.0472 0.0236,-4.27586 -6.96894,0.0945 c -0.87535,0.1128 -1.60212,-0.0716 -1.9135,-1.08668 l 0.0709,-6.30748 c 0.25727,-0.74344 0.7743,-1.16218 1.53553,-1.27567 l 7.46503,0.0472 c 1.01675,-0.0921 1.22437,0.55755 1.5119,1.13393 v 13.41815 c -0.16745,0.78734 -0.6679,1.2673 -1.65364,1.29929 l -7.27605,-0.0236 -0.0472,3.94512 7.63039,0.0709 c 2.90154,-0.43873 4.99424,-1.76154 5.19717,-5.14992 l -0.0236,-13.79614 c -0.36195,-3.02989 -2.26843,-4.615972 -5.52791,-4.937303 z"
           id="path4845"
           inkscape:connector-curvature="0"
           sodipodi:nodetypes="ccccccccccccccccccccc" />
        <path
           style="fill:#3ab4d4;stroke:#3ab4d4;stroke-width:0.26458332px;stroke-linecap:butt;stroke-linejoin:miter;stroke-opacity:1"
           d="m 171.79018,101.23196 0.0236,3.70889 14.48121,0.0236 0.0236,-3.70889 z"
           id="path4847"
           inkscape:connector-curvature="0" />
        <path
           style="fill:#3ab4d4;stroke:#3ab4d4;stroke-width:0.26458332px;stroke-linecap:butt;stroke-linejoin:miter;stroke-opacity:1"
           d="m 187.66518,91.995161 -0.0472,4.134114 8.83519,0.02363 0.0472,18.095605 4.03962,0.0236 -0.0472,-18.095605 h 8.7407 l -0.0472,-4.134115 z"
           id="path4849"
           inkscape:connector-curvature="0" />
      </g>
    </g>
  </g>
</svg>
